<?xml version="1.0" encoding="utf-8"?>
<!-- Generator: Adobe Illustrator 21.0.0, SVG Export Plug-In . SVG Version: 6.00 Build 0)  -->
<svg version="1.1" id="Layer_1" xmlns="http://www.w3.org/2000/svg" xmlns:xlink="http://www.w3.org/1999/xlink" x="0px" y="0px"
	 viewBox="0 0 9.9 17" style="enable-background:new 0 0 9.9 17;" xml:space="preserve">
<style type="text/css">
	.st0{fill:#E2CD91;}
</style>
<title>new</title>
<path class="st0" d="M0.4,16.7L0.4,16.7c-0.5-0.5-0.5-1.4,0-1.9c0,0,0,0,0,0l0,0l6.2-6.2L0.4,2.4c-0.5-0.5-0.5-1.4,0-1.9
	c0,0,0,0,0,0l0,0l0,0c0.5-0.5,1.4-0.5,1.9,0c0,0,0,0,0,0l0,0l7.1,7.2c0.2,0.2,0.4,0.5,0.4,0.8l0,0v0.1l0,0c0,0.3-0.2,0.6-0.4,0.8
	l-7.1,7.1C1.9,17,1,17.2,0.4,16.7L0.4,16.7z"/>
</svg>
