<?xml version="1.0" encoding="utf-8"?>
<!-- Generator: Adobe Illustrator 21.0.0, SVG Export Plug-In . SVG Version: 6.00 Build 0)  -->
<svg version="1.1" id="Layer_1" xmlns="http://www.w3.org/2000/svg" xmlns:xlink="http://www.w3.org/1999/xlink" x="0px" y="0px"
	 viewBox="0 0 512 512" style="enable-background:new 0 0 512 512;" xml:space="preserve">
<style type="text/css">
	.st0{fill:#836C54;}
</style>
<g>
	<path class="st0" d="M129,266.5c2.6,0,5.3-1,7.3-3L390.3,18c4.2-4,4.3-10.7,0.3-14.9s-10.7-4.3-14.9-0.3l-254,245.5
		c-4.2,4-4.3,10.7-0.3,14.9C123.5,265.5,126.2,266.5,129,266.5z"/>
	<path class="st0" d="M383,512c2.8,0,5.5-1.1,7.6-3.2c4-4.2,3.9-10.9-0.3-14.9l-254-245.5c-4.2-4-10.9-3.9-14.9,0.3
		s-3.9,10.9,0.3,14.9l254,245.5C377.7,511,380.4,512,383,512z"/>
</g>
</svg>
